<svg width="15" height="15" viewBox="0 0 15 15" fill="none" xmlns="http://www.w3.org/2000/svg">
<g clip-path="url(#clip0_26_110)">
<path d="M11.9107 3.50375L14.36 5.95313C14.7578 6.36991 14.9797 6.92389 14.9797 7.5C14.9797 8.07611 14.7578 8.63009 14.36 9.04688L11.9107 11.4963C11.8242 11.5858 11.7207 11.6572 11.6063 11.7063C11.492 11.7555 11.3689 11.7813 11.2445 11.7824C11.12 11.7835 10.9965 11.7598 10.8813 11.7126C10.7661 11.6655 10.6614 11.5959 10.5734 11.5079C10.4854 11.4198 10.4158 11.3152 10.3686 11.2C10.3215 11.0847 10.2978 10.9613 10.2989 10.8368C10.2999 10.7123 10.3258 10.5893 10.3749 10.4749C10.4241 10.3606 10.4955 10.2571 10.585 10.1706L12.3219 8.4325L0.915655 8.41813C0.667015 8.41813 0.428558 8.31935 0.252743 8.14354C0.0769272 7.96772 -0.0218449 7.72927 -0.0218449 7.48063C-0.0218449 7.23199 0.0769272 6.99353 0.252743 6.81771C0.428558 6.6419 0.667015 6.54313 0.915655 6.54313L12.3125 6.5575L10.585 4.82937C10.4143 4.65256 10.3198 4.41575 10.3219 4.16994C10.324 3.92413 10.4226 3.68899 10.5965 3.51517C10.7703 3.34135 11.0054 3.24275 11.2512 3.24062C11.497 3.23848 11.7338 3.33298 11.9107 3.50375Z" fill="white"/>
</g>
<defs>
<clipPath id="clip0_26_110">
<rect width="15" height="15" fill="white" transform="matrix(-1 0 0 1 15 0)"/>
</clipPath>
</defs>
</svg>
