<svg width="15" height="15" viewBox="0 0 15 15" fill="none" xmlns="http://www.w3.org/2000/svg">
<g clip-path="url(#clip0_48_397)">
<path d="M6.875 5.72937C6.875 5.72937 3.75 3.51875 3.75 1.71875C3.73029 1.28389 3.88361 0.858919 4.17643 0.536816C4.46926 0.214713 4.87773 0.021699 5.3125 0C5.74727 0.021699 6.15574 0.214713 6.44857 0.536816C6.74139 0.858919 6.89471 1.28389 6.875 1.71875C6.85529 1.28389 7.00861 0.858919 7.30143 0.536816C7.59426 0.214713 8.00273 0.021699 8.4375 0C8.87227 0.021699 9.28074 0.214713 9.57357 0.536816C9.86639 0.858919 10.0197 1.28389 10 1.71875C10 3.51875 6.875 5.72937 6.875 5.72937ZM14.4675 5.42562C14.1497 5.1356 13.73 4.98314 13.3001 5.00152C12.8702 5.01991 12.465 5.20765 12.1731 5.52375L9.95938 7.85937C9.98336 7.99102 9.99694 8.12435 10 8.25813C9.99734 8.89122 9.76779 9.50238 9.35301 9.98069C8.93823 10.459 8.36572 10.7727 7.73938 10.865L5.08875 11.2437L4.91125 10.0063L7.5625 9.625C7.90565 9.57207 8.21634 9.39201 8.43287 9.12059C8.6494 8.84917 8.75592 8.50623 8.73129 8.1599C8.70665 7.81356 8.55265 7.48916 8.29989 7.25112C8.04712 7.01309 7.71406 6.87882 7.36687 6.875H1.875C1.37772 6.875 0.900805 7.07254 0.549175 7.42417C0.197544 7.77581 0 8.25272 0 8.75L0 13.125C0 13.6223 0.197544 14.0992 0.549175 14.4508C0.900805 14.8025 1.37772 15 1.875 15H7.915L14.5862 7.71563C14.8708 7.39465 15.0178 6.9747 14.9956 6.54632C14.9734 6.11794 14.7837 5.71545 14.4675 5.42562V5.42562Z" fill="white"/>
</g>
<defs>
<clipPath id="clip0_48_397">
<rect width="15" height="15" fill="white"/>
</clipPath>
</defs>
</svg>
