<svg width="20" height="20" viewBox="0 0 20 20" fill="none" xmlns="http://www.w3.org/2000/svg">
<g clip-path="url(#clip0_44_282)">
<path d="M5.83333 0H3.33333C1.49238 0 0 1.49238 0 3.33333V5.83333C0 7.67428 1.49238 9.16667 3.33333 9.16667H5.83333C7.67428 9.16667 9.16667 7.67428 9.16667 5.83333V3.33333C9.16667 1.49238 7.67428 0 5.83333 0Z" fill="white"/>
<path d="M5.83333 10.8333H3.33333C1.49238 10.8333 0 12.3257 0 14.1667V16.6667C0 18.5076 1.49238 20 3.33333 20H5.83333C7.67428 20 9.16667 18.5076 9.16667 16.6667V14.1667C9.16667 12.3257 7.67428 10.8333 5.83333 10.8333Z" fill="white"/>
<path d="M18.5775 15.9383L16.6667 17.8467V2.15333L18.5775 4.06166C18.6549 4.13903 18.7468 4.2004 18.848 4.24225C18.9491 4.2841 19.0575 4.30562 19.1669 4.30558C19.2764 4.30554 19.3848 4.28395 19.4859 4.24202C19.587 4.2001 19.6789 4.13867 19.7562 4.06125C19.8336 3.98382 19.895 3.89192 19.9368 3.79078C19.9787 3.68964 20.0002 3.58124 20.0002 3.47179C20.0001 3.36233 19.9785 3.25395 19.9366 3.15284C19.8947 3.05173 19.8332 2.95987 19.7558 2.8825L17.6 0.729997C17.1312 0.261828 16.4958 -0.00113678 15.8333 -0.00113678C15.1708 -0.00113678 14.5354 0.261828 14.0667 0.729997L11.9108 2.8825C11.8334 2.95987 11.772 3.05173 11.7301 3.15284C11.6881 3.25395 11.6665 3.36233 11.6665 3.47179C11.6665 3.58124 11.688 3.68964 11.7298 3.79078C11.7717 3.89192 11.833 3.98382 11.9104 4.06125C11.9878 4.13867 12.0796 4.2001 12.1808 4.24202C12.2819 4.28395 12.3902 4.30554 12.4997 4.30558C12.6092 4.30562 12.7175 4.2841 12.8187 4.24225C12.9198 4.2004 13.0117 4.13903 13.0892 4.06166L15 2.15333V17.8467L13.0892 15.9383C13.0117 15.861 12.9197 15.7996 12.8185 15.7578C12.7173 15.7159 12.6089 15.6945 12.4994 15.6945C12.3899 15.6946 12.2815 15.7163 12.1804 15.7582C12.0792 15.8002 11.9874 15.8617 11.91 15.9392C11.8326 16.0166 11.7713 16.1086 11.7294 16.2098C11.6876 16.311 11.6661 16.4194 11.6662 16.5289C11.6663 16.6384 11.6879 16.7468 11.7299 16.848C11.7719 16.9491 11.8333 17.041 11.9108 17.1183L14.0667 19.2708C14.5361 19.7378 15.1712 19.9999 15.8333 19.9999C16.4954 19.9999 17.1306 19.7378 17.6 19.2708L19.7558 17.1183C19.9123 16.9621 20.0003 16.7501 20.0004 16.5289C20.0006 16.3078 19.9129 16.0956 19.7566 15.9392C19.6004 15.7827 19.3884 15.6947 19.1672 15.6945C18.9461 15.6944 18.734 15.7821 18.5775 15.9383V15.9383Z" fill="white"/>
</g>
<defs>
<clipPath id="clip0_44_282">
<rect width="20" height="20" fill="white"/>
</clipPath>
</defs>
</svg>
